<mxfile host="app.diagrams.net" modified="2021-03-10T03:45:38.808Z" agent="5.0 (Windows)" etag="hyEhD5PDhBIIgko8MLFI" version="14.2.9" type="github">
  <diagram id="YhctxddTNXVw_L7Siyhk" name="Page-1">
    <mxGraphModel dx="511" dy="219" grid="1" gridSize="10" guides="1" tooltips="1" connect="1" arrows="1" fold="1" page="1" pageScale="1" pageWidth="827" pageHeight="1169" math="0" shadow="0">
      <root>
        <mxCell id="0" />
        <mxCell id="1" parent="0" />
        <mxCell id="TVRRbZ8v0VUgyZd-Qh-u-1" value="STM32控制板" style="rounded=1;whiteSpace=wrap;html=1;" parent="1" vertex="1">
          <mxGeometry x="385" y="200" width="120" height="30" as="geometry" />
        </mxCell>
        <mxCell id="TVRRbZ8v0VUgyZd-Qh-u-2" value="电磁铁驱动的电机" style="rounded=1;whiteSpace=wrap;html=1;" parent="1" vertex="1">
          <mxGeometry x="395" y="270" width="100" height="30" as="geometry" />
        </mxCell>
        <mxCell id="TVRRbZ8v0VUgyZd-Qh-u-3" value="openmv摄像头" style="rounded=1;whiteSpace=wrap;html=1;arcSize=7;" parent="1" vertex="1">
          <mxGeometry x="395" y="50" width="100" height="30" as="geometry" />
        </mxCell>
        <mxCell id="TVRRbZ8v0VUgyZd-Qh-u-4" value="上位机识别颜色，生成解算步骤" style="rounded=1;whiteSpace=wrap;html=1;" parent="1" vertex="1">
          <mxGeometry x="385" y="120" width="117.5" height="30" as="geometry" />
        </mxCell>
        <mxCell id="TVRRbZ8v0VUgyZd-Qh-u-6" value="图片拍摄传输" style="endArrow=classic;html=1;" parent="1" edge="1">
          <mxGeometry x="0.0256" relative="1" as="geometry">
            <mxPoint x="442" y="80" as="sourcePoint" />
            <mxPoint x="442" y="119" as="targetPoint" />
            <Array as="points">
              <mxPoint x="442" y="119" />
            </Array>
            <mxPoint as="offset" />
          </mxGeometry>
        </mxCell>
        <mxCell id="TVRRbZ8v0VUgyZd-Qh-u-12" value="" style="endArrow=classic;html=1;exitX=0.44;exitY=1.049;exitDx=0;exitDy=0;exitPerimeter=0;entryX=0.457;entryY=0.038;entryDx=0;entryDy=0;entryPerimeter=0;" parent="1" edge="1">
          <mxGeometry relative="1" as="geometry">
            <mxPoint x="440.9000000000001" y="151.47000000000003" as="sourcePoint" />
            <mxPoint x="440.84000000000015" y="201.1400000000001" as="targetPoint" />
          </mxGeometry>
        </mxCell>
        <mxCell id="TVRRbZ8v0VUgyZd-Qh-u-13" value="解算步骤串口传输" style="edgeLabel;resizable=0;html=1;align=center;verticalAlign=middle;" parent="TVRRbZ8v0VUgyZd-Qh-u-12" connectable="0" vertex="1">
          <mxGeometry relative="1" as="geometry" />
        </mxCell>
        <mxCell id="TVRRbZ8v0VUgyZd-Qh-u-17" value="" style="endArrow=classic;html=1;exitX=0.457;exitY=1.003;exitDx=0;exitDy=0;exitPerimeter=0;entryX=0.449;entryY=0.003;entryDx=0;entryDy=0;entryPerimeter=0;" parent="1" source="TVRRbZ8v0VUgyZd-Qh-u-1" target="TVRRbZ8v0VUgyZd-Qh-u-2" edge="1">
          <mxGeometry relative="1" as="geometry">
            <mxPoint x="390" y="200" as="sourcePoint" />
            <mxPoint x="550" y="200" as="targetPoint" />
          </mxGeometry>
        </mxCell>
        <mxCell id="TVRRbZ8v0VUgyZd-Qh-u-18" value="控制电磁铁开合" style="edgeLabel;resizable=0;html=1;align=center;verticalAlign=middle;" parent="TVRRbZ8v0VUgyZd-Qh-u-17" connectable="0" vertex="1">
          <mxGeometry relative="1" as="geometry" />
        </mxCell>
      </root>
    </mxGraphModel>
  </diagram>
</mxfile>
